<svg width="95" height="29" viewBox="0 0 95 29" fill="none" xmlns="http://www.w3.org/2000/svg">
<g filter="url(#filter0_d_1_2)">
<path d="M19.5443 20.628V27H1.76031V26.712C1.76031 25.392 2.28831 24.684 3.34431 24.588L4.38831 24.516V4.896L1.86831 4.68C1.79631 4.536 1.80831 4.212 1.90431 3.708C2.12031 2.796 2.64831 2.34 3.48831 2.34H12.3083V2.664C12.3083 3.6 12.0323 4.236 11.4803 4.572C11.2643 4.692 11.0123 4.752 10.7243 4.752L8.96031 4.824H8.88831V24.444L16.6643 24.192L17.2403 19.224C18.7763 19.08 19.5443 19.548 19.5443 20.628ZM32.8137 4.68C28.5177 4.68 26.3697 7.956 26.3697 14.508C26.3697 17.796 26.8977 20.304 27.9537 22.032C29.0337 23.76 30.6057 24.636 32.6697 24.66C34.8537 24.636 36.4977 23.796 37.6017 22.14C38.7297 20.46 39.2937 17.988 39.2937 14.724C39.2937 11.46 38.7417 8.976 37.6377 7.272C36.5577 5.544 34.9497 4.68 32.8137 4.68ZM21.6897 14.832C21.6897 10.776 22.7217 7.596 24.7857 5.292C26.8497 2.964 29.6337 1.8 33.1377 1.8C36.6417 1.8 39.3177 2.916 41.1657 5.148C43.0377 7.356 43.9737 10.488 43.9737 14.544C43.9737 18.576 42.9297 21.756 40.8417 24.084C38.7777 26.388 35.9937 27.54 32.4897 27.54C28.9857 27.54 26.3097 26.436 24.4617 24.228C22.6137 21.996 21.6897 18.864 21.6897 14.832ZM59.47 15.624H69.298C69.298 15.624 69.298 15.72 69.298 15.912C69.298 17.232 68.77 17.94 67.714 18.036L66.67 18.108H66.454V23.688C65.83 24.84 64.666 25.776 62.962 26.496C61.258 27.192 59.338 27.54 57.202 27.54C53.698 27.54 51.034 26.448 49.21 24.264C47.41 22.056 46.51 18.96 46.51 14.976C46.51 10.992 47.53 7.8 49.57 5.4C51.634 3 54.61 1.8 58.498 1.8C61.234 1.8 63.334 2.256 64.798 3.168C66.262 4.056 66.994 5.172 66.994 6.516C66.994 7.476 66.67 8.22 66.022 8.748C65.374 9.276 64.498 9.54 63.394 9.54C63.394 7.74 62.998 6.432 62.206 5.616C61.438 4.8 60.058 4.392 58.066 4.392C53.482 4.392 51.19 7.764 51.19 14.508C51.19 17.82 51.766 20.292 52.918 21.924C54.094 23.532 55.99 24.336 58.606 24.336C60.622 24.336 62.074 23.868 62.962 22.932V18.18L57.85 17.964C57.706 16.404 58.246 15.624 59.47 15.624ZM82.2434 4.68C77.9474 4.68 75.7994 7.956 75.7994 14.508C75.7994 17.796 76.3274 20.304 77.3834 22.032C78.4634 23.76 80.0354 24.636 82.0994 24.66C84.2834 24.636 85.9274 23.796 87.0314 22.14C88.1594 20.46 88.7234 17.988 88.7234 14.724C88.7234 11.46 88.1714 8.976 87.0674 7.272C85.9874 5.544 84.3794 4.68 82.2434 4.68ZM71.1194 14.832C71.1194 10.776 72.1514 7.596 74.2154 5.292C76.2794 2.964 79.0634 1.8 82.5674 1.8C86.0714 1.8 88.7474 2.916 90.5954 5.148C92.4674 7.356 93.4034 10.488 93.4034 14.544C93.4034 18.576 92.3594 21.756 90.2714 24.084C88.2074 26.388 85.4234 27.54 81.9194 27.54C78.4154 27.54 75.7394 26.436 73.8914 24.228C72.0434 21.996 71.1194 18.864 71.1194 14.832Z" fill="black"/>
<path d="M19.5443 27V28H20.5443V27H19.5443ZM1.76031 27H0.760313V28H1.76031V27ZM3.34431 24.588L3.27551 23.5904L3.26463 23.5911L3.25378 23.5921L3.34431 24.588ZM4.38831 24.516L4.45711 25.5136L5.38831 25.4494V24.516H4.38831ZM4.38831 4.896H5.38831V3.97805L4.47371 3.89965L4.38831 4.896ZM1.86831 4.68L0.973884 5.12721L1.22452 5.62848L1.78291 5.67635L1.86831 4.68ZM1.90431 3.708L0.931232 3.47753L0.926123 3.49911L0.921974 3.52089L1.90431 3.708ZM12.3083 2.34H13.3083V1.34H12.3083V2.34ZM11.4803 4.572L11.966 5.44616L11.9833 5.43652L12.0003 5.4262L11.4803 4.572ZM10.7243 4.752V3.752H10.7039L10.6835 3.75283L10.7243 4.752ZM8.96031 4.824V5.824H8.98071L9.00109 5.82317L8.96031 4.824ZM8.88831 4.824V3.824H7.88831V4.824H8.88831ZM8.88831 24.444H7.88831V25.4769L8.9207 25.4435L8.88831 24.444ZM16.6643 24.192L16.6967 25.1915L17.5584 25.1636L17.6577 24.3072L16.6643 24.192ZM17.2403 19.224L17.147 18.2284L16.3403 18.304L16.247 19.1088L17.2403 19.224ZM18.5443 20.628V27H20.5443V20.628H18.5443ZM19.5443 26H1.76031V28H19.5443V26ZM2.76031 27V26.712H0.760313V27H2.76031ZM2.76031 26.712C2.76031 26.1661 2.87241 25.9035 2.95794 25.7888C3.01833 25.7079 3.12787 25.6118 3.43485 25.5839L3.25378 23.5921C2.50476 23.6602 1.8223 23.9661 1.35469 24.5932C0.912218 25.1865 0.760313 25.9379 0.760313 26.712H2.76031ZM3.41311 25.5856L4.45711 25.5136L4.31951 23.5184L3.27551 23.5904L3.41311 25.5856ZM5.38831 24.516V4.896H3.38831V24.516H5.38831ZM4.47371 3.89965L1.95371 3.68365L1.78291 5.67635L4.30291 5.89235L4.47371 3.89965ZM2.76274 4.23279C2.8125 4.33231 2.82119 4.40518 2.82194 4.41109C2.82346 4.4229 2.82096 4.41092 2.82263 4.36601C2.82601 4.27465 2.84333 4.12254 2.88665 3.89511L0.921974 3.52089C0.869295 3.79745 0.832614 4.05935 0.823998 4.29199C0.816886 4.48399 0.818969 4.81738 0.973884 5.12721L2.76274 4.23279ZM2.87739 3.93847C2.95333 3.61783 3.05768 3.48913 3.11593 3.43882C3.16295 3.39821 3.25707 3.34 3.48831 3.34V1.34C2.87955 1.34 2.28967 1.50978 1.80869 1.92518C1.33894 2.33087 1.07129 2.88617 0.931232 3.47753L2.87739 3.93847ZM3.48831 3.34H12.3083V1.34H3.48831V3.34ZM11.3083 2.34V2.664H13.3083V2.34H11.3083ZM11.3083 2.664C11.3083 3.42191 11.0927 3.63724 10.9604 3.7178L12.0003 5.4262C12.9719 4.83475 13.3083 3.77809 13.3083 2.664H11.3083ZM10.9947 3.69784C10.9502 3.72257 10.8707 3.752 10.7243 3.752V5.752C11.1539 5.752 11.5785 5.66143 11.966 5.44616L10.9947 3.69784ZM10.6835 3.75283L8.91953 3.82483L9.00109 5.82317L10.7651 5.75117L10.6835 3.75283ZM8.96031 3.824H8.88831V5.824H8.96031V3.824ZM7.88831 4.824V24.444H9.88831V4.824H7.88831ZM8.9207 25.4435L16.6967 25.1915L16.6319 23.1925L8.85592 23.4445L8.9207 25.4435ZM17.6577 24.3072L18.2337 19.3392L16.247 19.1088L15.671 24.0768L17.6577 24.3072ZM17.3337 20.2196C18.025 20.1548 18.3386 20.2543 18.4479 20.3209C18.4856 20.3439 18.496 20.36 18.5045 20.3772C18.517 20.4024 18.5443 20.4746 18.5443 20.628H20.5443C20.5443 19.821 20.2344 19.0675 19.4887 18.6131C18.83 18.2117 17.9916 18.1492 17.147 18.2284L17.3337 20.2196ZM27.9537 22.032L27.1004 22.5535L27.1057 22.562L27.9537 22.032ZM32.6697 24.66L32.6581 25.6599L32.6694 25.6601L32.6807 25.6599L32.6697 24.66ZM37.6017 22.14L36.7715 21.5826L36.7696 21.5853L37.6017 22.14ZM37.6377 7.272L36.7897 7.802L36.794 7.8089L36.7984 7.81574L37.6377 7.272ZM24.7857 5.292L25.5305 5.95926L25.5339 5.9554L24.7857 5.292ZM41.1657 5.148L40.3954 5.78578L40.4029 5.79468L41.1657 5.148ZM40.8417 24.084L40.0973 23.4163L40.0969 23.4168L40.8417 24.084ZM24.4617 24.228L23.6914 24.8657L23.6948 24.8698L24.4617 24.228ZM32.8137 3.68C30.3672 3.68 28.4234 4.63799 27.1444 6.58868C25.9136 8.46584 25.3697 11.1545 25.3697 14.508H27.3697C27.3697 11.3095 27.8998 9.08416 28.817 7.68532C29.6859 6.36001 30.9642 5.68 32.8137 5.68V3.68ZM25.3697 14.508C25.3697 17.8766 25.906 20.5989 27.1004 22.5534L28.807 21.5105C27.8894 20.0091 27.3697 17.7154 27.3697 14.508H25.3697ZM27.1057 22.562C28.3691 24.5834 30.2588 25.632 32.6581 25.6599L32.6813 23.6601C30.9526 23.64 29.6983 22.9366 28.8017 21.502L27.1057 22.562ZM32.6807 25.6599C35.1573 25.6327 37.1264 24.6557 38.4337 22.6947L36.7696 21.5853C35.869 22.9363 34.5501 23.6393 32.6587 23.6601L32.6807 25.6599ZM38.4319 22.6974C39.7195 20.7798 40.2937 18.0756 40.2937 14.724H38.2937C38.2937 17.9004 37.7399 20.1402 36.7715 21.5826L38.4319 22.6974ZM40.2937 14.724C40.2937 11.3737 39.7318 8.66506 38.4769 6.72826L36.7984 7.81574C37.7516 9.28694 38.2937 11.5463 38.2937 14.724H40.2937ZM38.4857 6.742C37.2125 4.70495 35.2744 3.68 32.8137 3.68V5.68C34.625 5.68 35.9028 6.38305 36.7897 7.802L38.4857 6.742ZM22.6897 14.832C22.6897 10.9439 23.6765 8.02883 25.5305 5.95925L24.0409 4.62475C21.7669 7.16316 20.6897 10.6081 20.6897 14.832H22.6897ZM25.5339 5.9554C27.383 3.86981 29.8796 2.8 33.1377 2.8V0.799998C29.3878 0.799998 26.3163 2.05819 24.0374 4.62859L25.5339 5.9554ZM33.1377 2.8C36.4125 2.8 38.7772 3.8313 40.3954 5.78574L41.9359 4.51026C39.8581 2.0007 36.8709 0.799998 33.1377 0.799998V2.8ZM40.4029 5.79468C42.0703 7.76128 42.9737 10.6307 42.9737 14.544H44.9737C44.9737 10.3453 44.0051 6.95072 41.9284 4.50131L40.4029 5.79468ZM42.9737 14.544C42.9737 18.4029 41.9775 21.3199 40.0973 23.4163L41.5861 24.7517C43.8818 22.1921 44.9737 18.7491 44.9737 14.544H42.9737ZM40.0969 23.4168C38.2488 25.4797 35.7513 26.54 32.4897 26.54V28.54C36.2361 28.54 39.3066 27.2963 41.5865 24.7512L40.0969 23.4168ZM32.4897 26.54C29.2112 26.54 26.8455 25.5182 25.2285 23.5862L23.6948 24.8698C25.7739 27.3538 28.7601 28.54 32.4897 28.54V26.54ZM25.2319 23.5903C23.5813 21.5966 22.6897 18.7214 22.6897 14.832H20.6897C20.6897 19.0066 21.6461 22.3954 23.6914 24.8657L25.2319 23.5903ZM69.298 15.624H70.298V14.624H69.298V15.624ZM67.714 18.036L67.7828 19.0336L67.7937 19.0329L67.8045 19.0319L67.714 18.036ZM66.67 18.108V19.108H66.7044L66.7388 19.1056L66.67 18.108ZM66.454 18.108V17.108H65.454V18.108H66.454ZM66.454 23.688L67.3333 24.1643L67.454 23.9414V23.688H66.454ZM62.962 26.496L63.3402 27.4218L63.3512 27.4171L62.962 26.496ZM49.21 24.264L48.4349 24.8959L48.4425 24.905L49.21 24.264ZM49.57 5.4L48.8118 4.74795L48.8081 4.75235L49.57 5.4ZM64.798 3.168L64.2692 4.01684L64.2794 4.02301L64.798 3.168ZM63.394 9.54H62.394V10.54H63.394V9.54ZM62.206 5.616L61.4778 6.30136L61.4831 6.30696L61.4884 6.31247L62.206 5.616ZM52.918 21.924L52.101 22.5007L52.1059 22.5075L52.1108 22.5143L52.918 21.924ZM62.962 22.932L63.6875 23.6203L63.962 23.3309V22.932H62.962ZM62.962 18.18H63.962V17.2214L63.0042 17.1809L62.962 18.18ZM57.85 17.964L56.8542 18.0559L56.9346 18.9262L57.8078 18.9631L57.85 17.964ZM59.47 16.624H69.298V14.624H59.47V16.624ZM69.298 15.624C68.298 15.624 68.298 15.624 68.298 15.624C68.298 15.624 68.298 15.624 68.298 15.624C68.298 15.624 68.298 15.624 68.298 15.624C68.298 15.624 68.298 15.624 68.298 15.624C68.298 15.624 68.298 15.624 68.298 15.624C68.298 15.624 68.298 15.624 68.298 15.624C68.298 15.624 68.298 15.624 68.298 15.6241C68.298 15.6241 68.298 15.6241 68.298 15.6241C68.298 15.6241 68.298 15.6241 68.298 15.6241C68.298 15.6241 68.298 15.6241 68.298 15.6241C68.298 15.6241 68.298 15.6241 68.298 15.6241C68.298 15.6241 68.298 15.6241 68.298 15.6242C68.298 15.6242 68.298 15.6242 68.298 15.6242C68.298 15.6242 68.298 15.6242 68.298 15.6242C68.298 15.6242 68.298 15.6242 68.298 15.6242C68.298 15.6243 68.298 15.6243 68.298 15.6243C68.298 15.6243 68.298 15.6243 68.298 15.6243C68.298 15.6243 68.298 15.6243 68.298 15.6244C68.298 15.6244 68.298 15.6244 68.298 15.6244C68.298 15.6244 68.298 15.6244 68.298 15.6244C68.298 15.6245 68.298 15.6245 68.298 15.6245C68.298 15.6245 68.298 15.6245 68.298 15.6245C68.298 15.6245 68.298 15.6246 68.298 15.6246C68.298 15.6246 68.298 15.6246 68.298 15.6246C68.298 15.6246 68.298 15.6247 68.298 15.6247C68.298 15.6247 68.298 15.6247 68.298 15.6247C68.298 15.6248 68.298 15.6248 68.298 15.6248C68.298 15.6248 68.298 15.6248 68.298 15.6249C68.298 15.6249 68.298 15.6249 68.298 15.6249C68.298 15.6249 68.298 15.625 68.298 15.625C68.298 15.625 68.298 15.625 68.298 15.6251C68.298 15.6251 68.298 15.6251 68.298 15.6251C68.298 15.6251 68.298 15.6252 68.298 15.6252C68.298 15.6252 68.298 15.6252 68.298 15.6253C68.298 15.6253 68.298 15.6253 68.298 15.6253C68.298 15.6254 68.298 15.6254 68.298 15.6254C68.298 15.6254 68.298 15.6255 68.298 15.6255C68.298 15.6255 68.298 15.6256 68.298 15.6256C68.298 15.6256 68.298 15.6256 68.298 15.6257C68.298 15.6257 68.298 15.6257 68.298 15.6258C68.298 15.6258 68.298 15.6258 68.298 15.6258C68.298 15.6259 68.298 15.6259 68.298 15.6259C68.298 15.626 68.298 15.626 68.298 15.626C68.298 15.6261 68.298 15.6261 68.298 15.6261C68.298 15.6262 68.298 15.6262 68.298 15.6262C68.298 15.6263 68.298 15.6263 68.298 15.6263C68.298 15.6264 68.298 15.6264 68.298 15.6264C68.298 15.6265 68.298 15.6265 68.298 15.6265C68.298 15.6266 68.298 15.6266 68.298 15.6266C68.298 15.6267 68.298 15.6267 68.298 15.6267C68.298 15.6268 68.298 15.6268 68.298 15.6269C68.298 15.6269 68.298 15.6269 68.298 15.627C68.298 15.627 68.298 15.627 68.298 15.6271C68.298 15.6271 68.298 15.6272 68.298 15.6272C68.298 15.6272 68.298 15.6273 68.298 15.6273C68.298 15.6274 68.298 15.6274 68.298 15.6274C68.298 15.6275 68.298 15.6275 68.298 15.6276C68.298 15.6276 68.298 15.6277 68.298 15.6277C68.298 15.6277 68.298 15.6278 68.298 15.6278C68.298 15.6279 68.298 15.6279 68.298 15.628C68.298 15.628 68.298 15.628 68.298 15.6281C68.298 15.6281 68.298 15.6282 68.298 15.6282C68.298 15.6283 68.298 15.6283 68.298 15.6284C68.298 15.6284 68.298 15.6285 68.298 15.6285C68.298 15.6285 68.298 15.6286 68.298 15.6286C68.298 15.6287 68.298 15.6287 68.298 15.6288C68.298 15.6288 68.298 15.6289 68.298 15.6289C68.298 15.629 68.298 15.629 68.298 15.6291C68.298 15.6291 68.298 15.6292 68.298 15.6292C68.298 15.6293 68.298 15.6293 68.298 15.6294C68.298 15.6294 68.298 15.6295 68.298 15.6295C68.298 15.6296 68.298 15.6296 68.298 15.6297C68.298 15.6297 68.298 15.6298 68.298 15.6299C68.298 15.6299 68.298 15.63 68.298 15.63C68.298 15.6301 68.298 15.6301 68.298 15.6302C68.298 15.6302 68.298 15.6303 68.298 15.6303C68.298 15.6304 68.298 15.6305 68.298 15.6305C68.298 15.6306 68.298 15.6306 68.298 15.6307C68.298 15.6307 68.298 15.6308 68.298 15.6309C68.298 15.6309 68.298 15.631 68.298 15.631C68.298 15.6311 68.298 15.6311 68.298 15.6312C68.298 15.6313 68.298 15.6313 68.298 15.6314C68.298 15.6314 68.298 15.6315 68.298 15.6316C68.298 15.6316 68.298 15.6317 68.298 15.6318C68.298 15.6318 68.298 15.6319 68.298 15.6319C68.298 15.632 68.298 15.6321 68.298 15.6321C68.298 15.6322 68.298 15.6323 68.298 15.6323C68.298 15.6324 68.298 15.6324 68.298 15.6325C68.298 15.6326 68.298 15.6326 68.298 15.6327C68.298 15.6328 68.298 15.6328 68.298 15.6329C68.298 15.633 68.298 15.633 68.298 15.6331C68.298 15.6332 68.298 15.6332 68.298 15.6333C68.298 15.6334 68.298 15.6334 68.298 15.6335C68.298 15.6336 68.298 15.6336 68.298 15.6337C68.298 15.6338 68.298 15.6338 68.298 15.6339C68.298 15.634 68.298 15.6341 68.298 15.6341C68.298 15.6342 68.298 15.6343 68.298 15.6343C68.298 15.6344 68.298 15.6345 68.298 15.6346C68.298 15.6346 68.298 15.6347 68.298 15.6348C68.298 15.6348 68.298 15.6349 68.298 15.635C68.298 15.6351 68.298 15.6351 68.298 15.6352C68.298 15.6353 68.298 15.6354 68.298 15.6354C68.298 15.6355 68.298 15.6356 68.298 15.6357C68.298 15.6357 68.298 15.6358 68.298 15.6359C68.298 15.636 68.298 15.636 68.298 15.6361C68.298 15.6362 68.298 15.6363 68.298 15.6363C68.298 15.6364 68.298 15.6365 68.298 15.6366C68.298 15.6367 68.298 15.6367 68.298 15.6368C68.298 15.6369 68.298 15.637 68.298 15.6371C68.298 15.6371 68.298 15.6372 68.298 15.6373C68.298 15.6374 68.298 15.6375 68.298 15.6375C68.298 15.6376 68.298 15.6377 68.298 15.6378C68.298 15.6379 68.298 15.6379 68.298 15.638C68.298 15.6381 68.298 15.6382 68.298 15.6383C68.298 15.6384 68.298 15.6384 68.298 15.6385C68.298 15.6386 68.298 15.6387 68.298 15.6388C68.298 15.6389 68.298 15.639 68.298 15.639C68.298 15.6391 68.298 15.6392 68.298 15.6393C68.298 15.6394 68.298 15.6395 68.298 15.6396C68.298 15.6396 68.298 15.6397 68.298 15.6398C68.298 15.6399 68.298 15.64 68.298 15.6401C68.298 15.6402 68.298 15.6403 68.298 15.6404C68.298 15.6404 68.298 15.6405 68.298 15.6406C68.298 15.6407 68.298 15.6408 68.298 15.6409C68.298 15.641 68.298 15.6411 68.298 15.6412C68.298 15.6413 68.298 15.6413 68.298 15.6414C68.298 15.6415 68.298 15.6416 68.298 15.6417C68.298 15.6418 68.298 15.6419 68.298 15.642C68.298 15.6421 68.298 15.6422 68.298 15.6423C68.298 15.6424 68.298 15.6425 68.298 15.6426C68.298 15.6427 68.298 15.6428 68.298 15.6429C68.298 15.6429 68.298 15.643 68.298 15.6431C68.298 15.6432 68.298 15.6433 68.298 15.6434C68.298 15.6435 68.298 15.6436 68.298 15.6437C68.298 15.6438 68.298 15.6439 68.298 15.644C68.298 15.6441 68.298 15.6442 68.298 15.6443C68.298 15.6444 68.298 15.6445 68.298 15.6446C68.298 15.6447 68.298 15.6448 68.298 15.6449C68.298 15.645 68.298 15.6451 68.298 15.6452C68.298 15.6453 68.298 15.6454 68.298 15.6455C68.298 15.6456 68.298 15.6457 68.298 15.6458C68.298 15.6459 68.298 15.646 68.298 15.6462C68.298 15.6463 68.298 15.6464 68.298 15.6465C68.298 15.6466 68.298 15.6467 68.298 15.6468C68.298 15.6469 68.298 15.647 68.298 15.6471C68.298 15.6472 68.298 15.6473 68.298 15.6474C68.298 15.6475 68.298 15.6476 68.298 15.6477C68.298 15.6478 68.298 15.648 68.298 15.6481C68.298 15.6482 68.298 15.6483 68.298 15.6484C68.298 15.6485 68.298 15.6486 68.298 15.6487C68.298 15.6488 68.298 15.6489 68.298 15.649C68.298 15.6492 68.298 15.6493 68.298 15.6494C68.298 15.6495 68.298 15.6496 68.298 15.6497C68.298 15.6498 68.298 15.6499 68.298 15.6501C68.298 15.6502 68.298 15.6503 68.298 15.6504C68.298 15.6505 68.298 15.6506 68.298 15.6507C68.298 15.6509 68.298 15.651 68.298 15.6511C68.298 15.6512 68.298 15.6513 68.298 15.6514C68.298 15.6515 68.298 15.6517 68.298 15.6518C68.298 15.6519 68.298 15.652 68.298 15.6521C68.298 15.6522 68.298 15.6524 68.298 15.6525C68.298 15.6526 68.298 15.6527 68.298 15.6528C68.298 15.653 68.298 15.6531 68.298 15.6532C68.298 15.6533 68.298 15.6534 68.298 15.6535C68.298 15.6537 68.298 15.6538 68.298 15.6539C68.298 15.654 68.298 15.6542 68.298 15.6543C68.298 15.6544 68.298 15.6545 68.298 15.6546C68.298 15.6548 68.298 15.6549 68.298 15.655C68.298 15.6551 68.298 15.6553 68.298 15.6554C68.298 15.6555 68.298 15.6556 68.298 15.6557C68.298 15.6559 68.298 15.656 68.298 15.6561C68.298 15.6562 68.298 15.6564 68.298 15.6565C68.298 15.6566 68.298 15.6568 68.298 15.6569C68.298 15.657 68.298 15.6571 68.298 15.6573C68.298 15.6574 68.298 15.6575 68.298 15.6576C68.298 15.6578 68.298 15.6579 68.298 15.658C68.298 15.6582 68.298 15.6583 68.298 15.6584C68.298 15.6585 68.298 15.6587 68.298 15.6588C68.298 15.6589 68.298 15.6591 68.298 15.6592C68.298 15.6593 68.298 15.6595 68.298 15.6596C68.298 15.6597 68.298 15.6599 68.298 15.66C68.298 15.6601 68.298 15.6603 68.298 15.6604C68.298 15.6605 68.298 15.6607 68.298 15.6608C68.298 15.6609 68.298 15.6611 68.298 15.6612C68.298 15.6613 68.298 15.6615 68.298 15.6616C68.298 15.6617 68.298 15.6619 68.298 15.662C68.298 15.6621 68.298 15.6623 68.298 15.6624C68.298 15.6626 68.298 15.6627 68.298 15.6628C68.298 15.663 68.298 15.6631 68.298 15.6632C68.298 15.6634 68.298 15.6635 68.298 15.6637C68.298 15.6638 68.298 15.6639 68.298 15.6641C68.298 15.6642 68.298 15.6644 68.298 15.6645C68.298 15.6646 68.298 15.6648 68.298 15.6649C68.298 15.6651 68.298 15.6652 68.298 15.6653C68.298 15.6655 68.298 15.6656 68.298 15.6658C68.298 15.6659 68.298 15.6661 68.298 15.6662C68.298 15.6663 68.298 15.6665 68.298 15.6666C68.298 15.6668 68.298 15.6669 68.298 15.6671C68.298 15.6672 68.298 15.6674 68.298 15.6675C68.298 15.6677 68.298 15.6678 68.298 15.6679C68.298 15.6681 68.298 15.6682 68.298 15.6684C68.298 15.6685 68.298 15.6687 68.298 15.6688C68.298 15.669 68.298 15.6691 68.298 15.6693C68.298 15.6694 68.298 15.6696 68.298 15.6697C68.298 15.6699 68.298 15.67 68.298 15.6702C68.298 15.6703 68.298 15.6705 68.298 15.6706C68.298 15.6708 68.298 15.6709 68.298 15.6711C68.298 15.6712 68.298 15.6714 68.298 15.6715C68.298 15.6717 68.298 15.6718 68.298 15.672C68.298 15.6721 68.298 15.6723 68.298 15.6724C68.298 15.6726 68.298 15.6728 68.298 15.6729C68.298 15.6731 68.298 15.6732 68.298 15.6734C68.298 15.6735 68.298 15.6737 68.298 15.6738C68.298 15.674 68.298 15.6742 68.298 15.6743C68.298 15.6745 68.298 15.6746 68.298 15.6748C68.298 15.6749 68.298 15.6751 68.298 15.6753C68.298 15.6754 68.298 15.6756 68.298 15.6757C68.298 15.6759 68.298 15.6761 68.298 15.6762C68.298 15.6764 68.298 15.6765 68.298 15.6767C68.298 15.6769 68.298 15.677 68.298 15.6772C68.298 15.6773 68.298 15.6775 68.298 15.6777C68.298 15.6778 68.298 15.678 68.298 15.6781C68.298 15.6783 68.298 15.6785 68.298 15.6786C68.298 15.6788 68.298 15.679 68.298 15.6791C68.298 15.6793 68.298 15.6795 68.298 15.6796C68.298 15.6798 68.298 15.6799 68.298 15.6801C68.298 15.6803 68.298 15.6804 68.298 15.6806C68.298 15.6808 68.298 15.6809 68.298 15.6811C68.298 15.6813 68.298 15.6814 68.298 15.6816C68.298 15.6818 68.298 15.6819 68.298 15.6821C68.298 15.6823 68.298 15.6825 68.298 15.6826C68.298 15.6828 68.298 15.683 68.298 15.6831C68.298 15.6833 68.298 15.6835 68.298 15.6836C68.298 15.6838 68.298 15.684 68.298 15.6842C68.298 15.6843 68.298 15.6845 68.298 15.6847C68.298 15.6848 68.298 15.685 68.298 15.6852C68.298 15.6854 68.298 15.6855 68.298 15.6857C68.298 15.6859 68.298 15.6861 68.298 15.6862C68.298 15.6864 68.298 15.6866 68.298 15.6868C68.298 15.6869 68.298 15.6871 68.298 15.6873C68.298 15.6875 68.298 15.6876 68.298 15.6878C68.298 15.688 68.298 15.6882 68.298 15.6883C68.298 15.6885 68.298 15.6887 68.298 15.6889C68.298 15.6891 68.298 15.6892 68.298 15.6894C68.298 15.6896 68.298 15.6898 68.298 15.6899C68.298 15.6901 68.298 15.6903 68.298 15.6905C68.298 15.6907 68.298 15.6908 68.298 15.691C68.298 15.6912 68.298 15.6914 68.298 15.6916C68.298 15.6918 68.298 15.6919 68.298 15.6921C68.298 15.6923 68.298 15.6925 68.298 15.6927C68.298 15.6928 68.298 15.693 68.298 15.6932C68.298 15.6934 68.298 15.6936 68.298 15.6938C68.298 15.694 68.298 15.6941 68.298 15.6943C68.298 15.6945 68.298 15.6947 68.298 15.6949C68.298 15.6951 68.298 15.6953 68.298 15.6954C68.298 15.6956 68.298 15.6958 68.298 15.696C68.298 15.6962 68.298 15.6964 68.298 15.6966C68.298 15.6968 68.298 15.6969 68.298 15.6971C68.298 15.6973 68.298 15.6975 68.298 15.6977C68.298 15.6979 68.298 15.6981 68.298 15.6983C68.298 15.6985 68.298 15.6986 68.298 15.6988C68.298 15.699 68.298 15.6992 68.298 15.6994C68.298 15.6996 68.298 15.6998 68.298 15.7C68.298 15.7002 68.298 15.7004 68.298 15.7006C68.298 15.7008 68.298 15.701 68.298 15.7012C68.298 15.7013 68.298 15.7015 68.298 15.7017C68.298 15.7019 68.298 15.7021 68.298 15.7023C68.298 15.7025 68.298 15.7027 68.298 15.7029C68.298 15.7031 68.298 15.7033 68.298 15.7035C68.298 15.7037 68.298 15.7039 68.298 15.7041C68.298 15.7043 68.298 15.7045 68.298 15.7047C68.298 15.7049 68.298 15.7051 68.298 15.7053C68.298 15.7055 68.298 15.7057 68.298 15.7059C68.298 15.7061 68.298 15.7063 68.298 15.7065C68.298 15.7067 68.298 15.7069 68.298 15.7071C68.298 15.7073 68.298 15.7075 68.298 15.7077C68.298 15.7079 68.298 15.7081 68.298 15.7083C68.298 15.7085 68.298 15.7087 68.298 15.7089C68.298 15.7091 68.298 15.7093 68.298 15.7095C68.298 15.7097 68.298 15.7099 68.298 15.7101C68.298 15.7103 68.298 15.7105 68.298 15.7107C68.298 15.711 68.298 15.7112 68.298 15.7114C68.298 15.7116 68.298 15.7118 68.298 15.712C68.298 15.7122 68.298 15.7124 68.298 15.7126C68.298 15.7128 68.298 15.713 68.298 15.7132C68.298 15.7134 68.298 15.7137 68.298 15.7139C68.298 15.7141 68.298 15.7143 68.298 15.7145C68.298 15.7147 68.298 15.7149 68.298 15.7151C68.298 15.7153 68.298 15.7155 68.298 15.7158C68.298 15.716 68.298 15.7162 68.298 15.7164C68.298 15.7166 68.298 15.7168 68.298 15.717C68.298 15.7172 68.298 15.7175 68.298 15.7177C68.298 15.7179 68.298 15.7181 68.298 15.7183C68.298 15.7185 68.298 15.7187 68.298 15.719C68.298 15.7192 68.298 15.7194 68.298 15.7196C68.298 15.7198 68.298 15.72 68.298 15.7203C68.298 15.7205 68.298 15.7207 68.298 15.7209C68.298 15.7211 68.298 15.7213 68.298 15.7216C68.298 15.7218 68.298 15.722 68.298 15.7222C68.298 15.7224 68.298 15.7227 68.298 15.7229C68.298 15.7231 68.298 15.7233 68.298 15.7235C68.298 15.7238 68.298 15.724 68.298 15.7242C68.298 15.7244 68.298 15.7246 68.298 15.7249C68.298 15.7251 68.298 15.7253 68.298 15.7255C68.298 15.7258 68.298 15.726 68.298 15.7262C68.298 15.7264 68.298 15.7266 68.298 15.7269C68.298 15.7271 68.298 15.7273 68.298 15.7275C68.298 15.7278 68.298 15.728 68.298 15.7282C68.298 15.7284 68.298 15.7287 68.298 15.7289C68.298 15.7291 68.298 15.7294 68.298 15.7296C68.298 15.7298 68.298 15.73 68.298 15.7303C68.298 15.7305 68.298 15.7307 68.298 15.7309C68.298 15.7312 68.298 15.7314 68.298 15.7316C68.298 15.7319 68.298 15.7321 68.298 15.7323C68.298 15.7326 68.298 15.7328 68.298 15.733C68.298 15.7332 68.298 15.7335 68.298 15.7337C68.298 15.7339 68.298 15.7342 68.298 15.7344C68.298 15.7346 68.298 15.7349 68.298 15.7351C68.298 15.7353 68.298 15.7356 68.298 15.7358C68.298 15.736 68.298 15.7363 68.298 15.7365C68.298 15.7367 68.298 15.737 68.298 15.7372C68.298 15.7374 68.298 15.7377 68.298 15.7379C68.298 15.7381 68.298 15.7384 68.298 15.7386C68.298 15.7389 68.298 15.7391 68.298 15.7393C68.298 15.7396 68.298 15.7398 68.298 15.74C68.298 15.7403 68.298 15.7405 68.298 15.7408C68.298 15.741 68.298 15.7412 68.298 15.7415C68.298 15.7417 68.298 15.742 68.298 15.7422C68.298 15.7424 68.298 15.7427 68.298 15.7429C68.298 15.7432 68.298 15.7434 68.298 15.7436C68.298 15.7439 68.298 15.7441 68.298 15.7444C68.298 15.7446 68.298 15.7449 68.298 15.7451C68.298 15.7453 68.298 15.7456 68.298 15.7458C68.298 15.7461 68.298 15.7463 68.298 15.7466C68.298 15.7468 68.298 15.747 68.298 15.7473C68.298 15.7475 68.298 15.7478 68.298 15.748C68.298 15.7483 68.298 15.7485 68.298 15.7488C68.298 15.749 68.298 15.7493 68.298 15.7495C68.298 15.7498 68.298 15.75 68.298 15.7503C68.298 15.7505 68.298 15.7508 68.298 15.751C68.298 15.7513 68.298 15.7515 68.298 15.7517C68.298 15.752 68.298 15.7522 68.298 15.7525C68.298 15.7528 68.298 15.753 68.298 15.7533C68.298 15.7535 68.298 15.7538 68.298 15.754C68.298 15.7543 68.298 15.7545 68.298 15.7548C68.298 15.755 68.298 15.7553 68.298 15.7555C68.298 15.7558 68.298 15.756 68.298 15.7563C68.298 15.7565 68.298 15.7568 68.298 15.757C68.298 15.7573 68.298 15.7576 68.298 15.7578C68.298 15.7581 68.298 15.7583 68.298 15.7586C68.298 15.7588 68.298 15.7591 68.298 15.7594C68.298 15.7596 68.298 15.7599 68.298 15.7601C68.298 15.7604 68.298 15.7606 68.298 15.7609C68.298 15.7612 68.298 15.7614 68.298 15.7617C68.298 15.7619 68.298 15.7622 68.298 15.7625C68.298 15.7627 68.298 15.763 68.298 15.7632C68.298 15.7635 68.298 15.7638 68.298 15.764C68.298 15.7643 68.298 15.7645 68.298 15.7648C68.298 15.7651 68.298 15.7653 68.298 15.7656C68.298 15.7659 68.298 15.7661 68.298 15.7664C68.298 15.7666 68.298 15.7669 68.298 15.7672C68.298 15.7674 68.298 15.7677 68.298 15.768C68.298 15.7682 68.298 15.7685 68.298 15.7688C68.298 15.769 68.298 15.7693 68.298 15.7696C68.298 15.7698 68.298 15.7701 68.298 15.7704C68.298 15.7706 68.298 15.7709 68.298 15.7712C68.298 15.7714 68.298 15.7717 68.298 15.772C68.298 15.7722 68.298 15.7725 68.298 15.7728C68.298 15.7731 68.298 15.7733 68.298 15.7736C68.298 15.7739 68.298 15.7741 68.298 15.7744C68.298 15.7747 68.298 15.7749 68.298 15.7752C68.298 15.7755 68.298 15.7758 68.298 15.776C68.298 15.7763 68.298 15.7766 68.298 15.7769C68.298 15.7771 68.298 15.7774 68.298 15.7777C68.298 15.7779 68.298 15.7782 68.298 15.7785C68.298 15.7788 68.298 15.779 68.298 15.7793C68.298 15.7796 68.298 15.7799 68.298 15.7801C68.298 15.7804 68.298 15.7807 68.298 15.781C68.298 15.7813 68.298 15.7815 68.298 15.7818C68.298 15.7821 68.298 15.7824 68.298 15.7826C68.298 15.7829 68.298 15.7832 68.298 15.7835C68.298 15.7838 68.298 15.784 68.298 15.7843C68.298 15.7846 68.298 15.7849 68.298 15.7852C68.298 15.7854 68.298 15.7857 68.298 15.786C68.298 15.7863 68.298 15.7866 68.298 15.7868C68.298 15.7871 68.298 15.7874 68.298 15.7877C68.298 15.788 68.298 15.7883 68.298 15.7885C68.298 15.7888 68.298 15.7891 68.298 15.7894C68.298 15.7897 68.298 15.79 68.298 15.7902C68.298 15.7905 68.298 15.7908 68.298 15.7911C68.298 15.7914 68.298 15.7917 68.298 15.792C68.298 15.7922 68.298 15.7925 68.298 15.7928C68.298 15.7931 68.298 15.7934 68.298 15.7937C68.298 15.794 68.298 15.7943 68.298 15.7945C68.298 15.7948 68.298 15.7951 68.298 15.7954C68.298 15.7957 68.298 15.796 68.298 15.7963C68.298 15.7966 68.298 15.7969 68.298 15.7972C68.298 15.7974 68.298 15.7977 68.298 15.798C68.298 15.7983 68.298 15.7986 68.298 15.7989C68.298 15.7992 68.298 15.7995 68.298 15.7998C68.298 15.8001 68.298 15.8004 68.298 15.8007C68.298 15.801 68.298 15.8012 68.298 15.8015C68.298 15.8018 68.298 15.8021 68.298 15.8024C68.298 15.8027 68.298 15.803 68.298 15.8033C68.298 15.8036 68.298 15.8039 68.298 15.8042C68.298 15.8045 68.298 15.8048 68.298 15.8051C68.298 15.8054 68.298 15.8057 68.298 15.806C68.298 15.8063 68.298 15.8066 68.298 15.8069C68.298 15.8072 68.298 15.8075 68.298 15.8078C68.298 15.8081 68.298 15.8084 68.298 15.8087C68.298 15.809 68.298 15.8093 68.298 15.8096C68.298 15.8099 68.298 15.8102 68.298 15.8105C68.298 15.8108 68.298 15.8111 68.298 15.8114C68.298 15.8117 68.298 15.812 68.298 15.8123C68.298 15.8126 68.298 15.8129 68.298 15.8132C68.298 15.8135 68.298 15.8138 68.298 15.8141C68.298 15.8144 68.298 15.8147 68.298 15.815C68.298 15.8153 68.298 15.8157 68.298 15.816C68.298 15.8163 68.298 15.8166 68.298 15.8169C68.298 15.8172 68.298 15.8175 68.298 15.8178C68.298 15.8181 68.298 15.8184 68.298 15.8187C68.298 15.819 68.298 15.8193 68.298 15.8196C68.298 15.82 68.298 15.8203 68.298 15.8206C68.298 15.8209 68.298 15.8212 68.298 15.8215C68.298 15.8218 68.298 15.8221 68.298 15.8224C68.298 15.8228 68.298 15.8231 68.298 15.8234C68.298 15.8237 68.298 15.824 68.298 15.8243C68.298 15.8246 68.298 15.8249 68.298 15.8253C68.298 15.8256 68.298 15.8259 68.298 15.8262C68.298 15.8265 68.298 15.8268 68.298 15.8271C68.298 15.8275 68.298 15.8278 68.298 15.8281C68.298 15.8284 68.298 15.8287 68.298 15.829C68.298 15.8293 68.298 15.8297 68.298 15.83C68.298 15.8303 68.298 15.8306 68.298 15.8309C68.298 15.8313 68.298 15.8316 68.298 15.8319C68.298 15.8322 68.298 15.8325 68.298 15.8328C68.298 15.8332 68.298 15.8335 68.298 15.8338C68.298 15.8341 68.298 15.8344 68.298 15.8348C68.298 15.8351 68.298 15.8354 68.298 15.8357C68.298 15.8361 68.298 15.8364 68.298 15.8367C68.298 15.837 68.298 15.8373 68.298 15.8377C68.298 15.838 68.298 15.8383 68.298 15.8386C68.298 15.839 68.298 15.8393 68.298 15.8396C68.298 15.8399 68.298 15.8403 68.298 15.8406C68.298 15.8409 68.298 15.8412 68.298 15.8416C68.298 15.8419 68.298 15.8422 68.298 15.8425C68.298 15.8429 68.298 15.8432 68.298 15.8435C68.298 15.8438 68.298 15.8442 68.298 15.8445C68.298 15.8448 68.298 15.8452 68.298 15.8455C68.298 15.8458 68.298 15.8461 68.298 15.8465C68.298 15.8468 68.298 15.8471 68.298 15.8475C68.298 15.8478 68.298 15.8481 68.298 15.8485C68.298 15.8488 68.298 15.8491 68.298 15.8494C68.298 15.8498 68.298 15.8501 68.298 15.8504C68.298 15.8508 68.298 15.8511 68.298 15.8514C68.298 15.8518 68.298 15.8521 68.298 15.8524C68.298 15.8528 68.298 15.8531 68.298 15.8534C68.298 15.8538 68.298 15.8541 68.298 15.8545C68.298 15.8548 68.298 15.8551 68.298 15.8555C68.298 15.8558 68.298 15.8561 68.298 15.8565C68.298 15.8568 68.298 15.8571 68.298 15.8575C68.298 15.8578 68.298 15.8582 68.298 15.8585C68.298 15.8588 68.298 15.8592 68.298 15.8595C68.298 15.8599 68.298 15.8602 68.298 15.8605C68.298 15.8609 68.298 15.8612 68.298 15.8616C68.298 15.8619 68.298 15.8622 68.298 15.8626C68.298 15.8629 68.298 15.8633 68.298 15.8636C68.298 15.8639 68.298 15.8643 68.298 15.8646C68.298 15.865 68.298 15.8653 68.298 15.8657C68.298 15.866 68.298 15.8663 68.298 15.8667C68.298 15.867 68.298 15.8674 68.298 15.8677C68.298 15.8681 68.298 15.8684 68.298 15.8688C68.298 15.8691 68.298 15.8694 68.298 15.8698C68.298 15.8701 68.298 15.8705 68.298 15.8708C68.298 15.8712 68.298 15.8715 68.298 15.8719C68.298 15.8722 68.298 15.8726 68.298 15.8729C68.298 15.8733 68.298 15.8736 68.298 15.874C68.298 15.8743 68.298 15.8747 68.298 15.875C68.298 15.8754 68.298 15.8757 68.298 15.8761C68.298 15.8764 68.298 15.8768 68.298 15.8771C68.298 15.8775 68.298 15.8778 68.298 15.8782C68.298 15.8785 68.298 15.8789 68.298 15.8792C68.298 15.8796 68.298 15.8799 68.298 15.8803C68.298 15.8807 68.298 15.881 68.298 15.8814C68.298 15.8817 68.298 15.8821 68.298 15.8824C68.298 15.8828 68.298 15.8831 68.298 15.8835C68.298 15.8838 68.298 15.8842 68.298 15.8846C68.298 15.8849 68.298 15.8853 68.298 15.8856C68.298 15.886 68.298 15.8863 68.298 15.8867C68.298 15.8871 68.298 15.8874 68.298 15.8878C68.298 15.8881 68.298 15.8885 68.298 15.8889C68.298 15.8892 68.298 15.8896 68.298 15.8899C68.298 15.8903 68.298 15.8907 68.298 15.891C68.298 15.8914 68.298 15.8917 68.298 15.8921C68.298 15.8925 68.298 15.8928 68.298 15.8932C68.298 15.8936 68.298 15.8939 68.298 15.8943C68.298 15.8946 68.298 15.895 68.298 15.8954C68.298 15.8957 68.298 15.8961 68.298 15.8965C68.298 15.8968 68.298 15.8972 68.298 15.8976C68.298 15.8979 68.298 15.8983 68.298 15.8987C68.298 15.899 68.298 15.8994 68.298 15.8998C68.298 15.9001 68.298 15.9005 68.298 15.9009C68.298 15.9012 68.298 15.9016 68.298 15.902C68.298 15.9023 68.298 15.9027 68.298 15.9031C68.298 15.9034 68.298 15.9038 68.298 15.9042C68.298 15.9045 68.298 15.9049 68.298 15.9053C68.298 15.9057 68.298 15.906 68.298 15.9064C68.298 15.9068 68.298 15.9071 68.298 15.9075C68.298 15.9079 68.298 15.9083 68.298 15.9086C68.298 15.909 68.298 15.9094 68.298 15.9098C68.298 15.9101 68.298 15.9105 68.298 15.9109C68.298 15.9112 68.298 15.9116 68.298 15.912H70.298C70.298 15.9116 70.298 15.9112 70.298 15.9109C70.298 15.9105 70.298 15.9101 70.298 15.9098C70.298 15.9094 70.298 15.909 70.298 15.9086C70.298 15.9083 70.298 15.9079 70.298 15.9075C70.298 15.9071 70.298 15.9068 70.298 15.9064C70.298 15.906 70.298 15.9057 70.298 15.9053C70.298 15.9049 70.298 15.9045 70.298 15.9042C70.298 15.9038 70.298 15.9034 70.298 15.9031C70.298 15.9027 70.298 15.9023 70.298 15.902C70.298 15.9016 70.298 15.9012 70.298 15.9009C70.298 15.9005 70.298 15.9001 70.298 15.8998C70.298 15.8994 70.298 15.899 70.298 15.8987C70.298 15.8983 70.298 15.8979 70.298 15.8976C70.298 15.8972 70.298 15.8968 70.298 15.8965C70.298 15.8961 70.298 15.8957 70.298 15.8954C70.298 15.895 70.298 15.8946 70.298 15.8943C70.298 15.8939 70.298 15.8936 70.298 15.8932C70.298 15.8928 70.298 15.8925 70.298 15.8921C70.298 15.8917 70.298 15.8914 70.298 15.891C70.298 15.8907 70.298 15.8903 70.298 15.8899C70.298 15.8896 70.298 15.8892 70.298 15.8889C70.298 15.8885 70.298 15.8881 70.298 15.8878C70.298 15.8874 70.298 15.8871 70.298 15.8867C70.298 15.8863 70.298 15.886 70.298 15.8856C70.298 15.8853 70.298 15.8849 70.298 15.8846C70.298 15.8842 70.298 15.8838 70.298 15.8835C70.298 15.8831 70.298 15.8828 70.298 15.8824C70.298 15.8821 70.298 15.8817 70.298 15.8814C70.298 15.881 70.298 15.8807 70.298 15.8803C70.298 15.8799 70.298 15.8796 70.298 15.8792C70.298 15.8789 70.298 15.8785 70.298 15.8782C70.298 15.8778 70.298 15.8775 70.298 15.8771C70.298 15.8768 70.298 15.8764 70.298 15.8761C70.298 15.8757 70.298 15.8754 70.298 15.875C70.298 15.8747 70.298 15.8743 70.298 15.874C70.298 15.8736 70.298 15.8733 70.298 15.8729C70.298 15.8726 70.298 15.8722 70.298 15.8719C70.298 15.8715 70.298 15.8712 70.298 15.8708C70.298 15.8705 70.298 15.8701 70.298 15.8698C70.298 15.8694 70.298 15.8691 70.298 15.8688C70.298 15.8684 70.298 15.8681 70.298 15.8677C70.298 15.8674 70.298 15.867 70.298 15.8667C70.298 15.8663 70.298 15.866 70.298 15.8657C70.298 15.8653 70.298 15.865 70.298 15.8646C70.298 15.8643 70.298 15.8639 70.298 15.8636C70.298 15.8633 70.298 15.8629 70.298 15.8626C70.298 15.8622 70.298 15.8619 70.298 15.8616C70.298 15.8612 70.298 15.8609 70.298 15.8605C70.298 15.8602 70.298 15.8599 70.298 15.8595C70.298 15.8592 70.298 15.8588 70.298 15.8585C70.298 15.8582 70.298 15.8578 70.298 15.8575C70.298 15.8571 70.298 15.8568 70.298 15.8565C70.298 15.8561 70.298 15.8558 70.298 15.8555C70.298 15.8551 70.298 15.8548 70.298 15.8545C70.298 15.8541 70.298 15.8538 70.298 15.8534C70.298 15.8531 70.298 15.8528 70.298 15.8524C70.298 15.8521 70.298 15.8518 70.298 15.8514C70.298 15.8511 70.298 15.8508 70.298 15.8504C70.298 15.8501 70.298 15.8498 70.298 15.8494C70.298 15.8491 70.298 15.8488 70.298 15.8485C70.298 15.8481 70.298 15.8478 70.298 15.8475C70.298 15.8471 70.298 15.8468 70.298 15.8465C70.298 15.8461 70.298 15.8458 70.298 15.8455C70.298 15.8452 70.298 15.8448 70.298 15.8445C70.298 15.8442 70.298 15.8438 70.298 15.8435C70.298 15.8432 70.298 15.8429 70.298 15.8425C70.298 15.8422 70.298 15.8419 70.298 15.8416C70.298 15.8412 70.298 15.8409 70.298 15.8406C70.298 15.8403 70.298 15.8399 70.298 15.8396C70.298 15.8393 70.298 15.839 70.298 15.8386C70.298 15.8383 70.298 15.838 70.298 15.8377C70.298 15.8373 70.298 15.837 70.298 15.8367C70.298 15.8364 70.298 15.8361 70.298 15.8357C70.298 15.8354 70.298 15.8351 70.298 15.8348C70.298 15.8344 70.298 15.8341 70.298 15.8338C70.298 15.8335 70.298 15.8332 70.298 15.8328C70.298 15.8325 70.298 15.8322 70.298 15.8319C70.298 15.8316 70.298 15.8313 70.298 15.8309C70.298 15.8306 70.298 15.8303 70.298 15.83C70.298 15.8297 70.298 15.8293 70.298 15.829C70.298 15.8287 70.298 15.8284 70.298 15.8281C70.298 15.8278 70.298 15.8275 70.298 15.8271C70.298 15.8268 70.298 15.8265 70.298 15.8262C70.298 15.8259 70.298 15.8256 70.298 15.8253C70.298 15.8249 70.298 15.8246 70.298 15.8243C70.298 15.824 70.298 15.8237 70.298 15.8234C70.298 15.8231 70.298 15.8228 70.298 15.8224C70.298 15.8221 70.298 15.8218 70.298 15.8215C70.298 15.8212 70.298 15.8209 70.298 15.8206C70.298 15.8203 70.298 15.82 70.298 15.8196C70.298 15.8193 70.298 15.819 70.298 15.8187C70.298 15.8184 70.298 15.8181 70.298 15.8178C70.298 15.8175 70.298 15.8172 70.298 15.8169C70.298 15.8166 70.298 15.8163 70.298 15.816C70.298 15.8157 70.298 15.8153 70.298 15.815C70.298 15.8147 70.298 15.8144 70.298 15.8141C70.298 15.8138 70.298 15.8135 70.298 15.8132C70.298 15.8129 70.298 15.8126 70.298 15.8123C70.298 15.812 70.298 15.8117 70.298 15.8114C70.298 15.8111 70.298 15.8108 70.298 15.8105C70.298 15.8102 70.298 15.8099 70.298 15.8096C70.298 15.8093 70.298 15.809 70.298 15.8087C70.298 15.8084 70.298 15.8081 70.298 15.8078C70.298 15.8075 70.298 15.8072 70.298 15.8069C70.298 15.8066 70.298 15.8063 70.298 15.806C70.298 15.8057 70.298 15.8054 70.298 15.8051C70.298 15.8048 70.298 15.8045 70.298 15.8042C70.298 15.8039 70.298 15.8036 70.298 15.8033C70.298 15.803 70.298 15.8027 70.298 15.8024C70.298 15.8021 70.298 15.8018 70.298 15.8015C70.298 15.8012 70.298 15.801 70.298 15.8007C70.298 15.8004 70.298 15.8001 70.298 15.7998C70.298 15.7995 70.298 15.7992 70.298 15.7989C70.298 15.7986 70.298 15.7983 70.298 15.798C70.298 15.7977 70.298 15.7974 70.298 15.7972C70.298 15.7969 70.298 15.7966 70.298 15.7963C70.298 15.796 70.298 15.7957 70.298 15.7954C70.298 15.7951 70.298 15.7948 70.298 15.7945C70.298 15.7943 70.298 15.794 70.298 15.7937C70.298 15.7934 70.298 15.7931 70.298 15.7928C70.298 15.7925 70.298 15.7922 70.298 15.792C70.298 15.7917 70.298 15.7914 70.298 15.7911C70.298 15.7908 70.298 15.7905 70.298 15.7902C70.298 15.79 70.298 15.7897 70.298 15.7894C70.298 15.7891 70.298 15.7888 70.298 15.7885C70.298 15.7883 70.298 15.788 70.298 15.7877C70.298 15.7874 70.298 15.7871 70.298 15.7868C70.298 15.7866 70.298 15.7863 70.298 15.786C70.298 15.7857 70.298 15.7854 70.298 15.7852C70.298 15.7849 70.298 15.7846 70.298 15.7843C70.298 15.784 70.298 15.7838 70.298 15.7835C70.298 15.7832 70.298 15.7829 70.298 15.7826C70.298 15.7824 70.298 15.7821 70.298 15.7818C70.298 15.7815 70.298 15.7813 70.298 15.781C70.298 15.7807 70.298 15.7804 70.298 15.7801C70.298 15.7799 70.298 15.7796 70.298 15.7793C70.298 15.779 70.298 15.7788 70.298 15.7785C70.298 15.7782 70.298 15.7779 70.298 15.7777C70.298 15.7774 70.298 15.7771 70.298 15.7769C70.298 15.7766 70.298 15.7763 70.298 15.776C70.298 15.7758 70.298 15.7755 70.298 15.7752C70.298 15.7749 70.298 15.7747 70.298 15.7744C70.298 15.7741 70.298 15.7739 70.298 15.7736C70.298 15.7733 70.298 15.7731 70.298 15.7728C70.298 15.7725 70.298 15.7722 70.298 15.772C70.298 15.7717 70.298 15.7714 70.298 15.7712C70.298 15.7709 70.298 15.7706 70.298 15.7704C70.298 15.7701 70.298 15.7698 70.298 15.7696C70.298 15.7693 70.298 15.769 70.298 15.7688C70.298 15.7685 70.298 15.7682 70.298 15.768C70.298 15.7677 70.298 15.7674 70.298 15.7672C70.298 15.7669 70.298 15.7666 70.298 15.7664C70.298 15.7661 70.298 15.7659 70.298 15.7656C70.298 15.7653 70.298 15.7651 70.298 15.7648C70.298 15.7645 70.298 15.7643 70.298 15.764C70.298 15.7638 70.298 15.7635 70.298 15.7632C70.298 15.763 70.298 15.7627 70.298 15.7625C70.298 15.7622 70.298 15.7619 70.298 15.7617C70.298 15.7614 70.298 15.7612 70.298 15.7609C70.298 15.7606 70.298 15.7604 70.298 15.7601C70.298 15.7599 70.298 15.7596 70.298 15.7594C70.298 15.7591 70.298 15.7588 70.298 15.7586C70.298 15.7583 70.298 15.7581 70.298 15.7578C70.298 15.7576 70.298 15.7573 70.298 15.757C70.298 15.7568 70.298 15.7565 70.298 15.7563C70.298 15.756 70.298 15.7558 70.298 15.7555C70.298 15.7553 70.298 15.755 70.298 15.7548C70.298 15.7545 70.298 15.7543 70.298 15.754C70.298 15.7538 70.298 15.7535 70.298 15.7533C70.298 15.753 70.298 15.7528 70.298 15.7525C70.298 15.7522 70.298 15.752 70.298 15.7517C70.298 15.7515 70.298 15.7513 70.298 15.751C70.298 15.7508 70.298 15.7505 70.298 15.7503C70.298 15.75 70.298 15.7498 70.298 15.7495C70.298 15.7493 70.298 15.749 70.298 15.7488C70.298 15.7485 70.298 15.7483 70.298 15.748C70.298 15.7478 70.298 15.7475 70.298 15.7473C70.298 15.747 70.298 15.7468 70.298 15.7466C70.298 15.7463 70.298 15.7461 70.298 15.7458C70.298 15.7456 70.298 15.7453 70.298 15.7451C70.298 15.7449 70.298 15.7446 70.298 15.7444C70.298 15.7441 70.298 15.7439 70.298 15.7436C70.298 15.7434 70.298 15.7432 70.298 15.7429C70.298 15.7427 70.298 15.7424 70.298 15.7422C70.298 15.742 70.298 15.7417 70.298 15.7415C70.298 15.7412 70.298 15.741 70.298 15.7408C70.298 15.7405 70.298 15.7403 70.298 15.74C70.298 15.7398 70.298 15.7396 70.298 15.7393C70.298 15.7391 70.298 15.7389 70.298 15.7386C70.298 15.7384 70.298 15.7381 70.298 15.7379C70.298 15.7377 70.298 15.7374 70.298 15.7372C70.298 15.737 70.298 15.7367 70.298 15.7365C70.298 15.7363 70.298 15.736 70.298 15.7358C70.298 15.7356 70.298 15.7353 70.298 15.7351C70.298 15.7349 70.298 15.7346 70.298 15.7344C70.298 15.7342 70.298 15.7339 70.298 15.7337C70.298 15.7335 70.298 15.7332 70.298 15.733C70.298 15.7328 70.298 15.7326 70.298 15.7323C70.298 15.7321 70.298 15.7319 70.298 15.7316C70.298 15.7314 70.298 15.7312 70.298 15.7309C70.298 15.7307 70.298 15.7305 70.298 15.7303C70.298 15.73 70.298 15.7298 70.298 15.7296C70.298 15.7294 70.298 15.7291 70.298 15.7289C70.298 15.7287 70.298 15.7284 70.298 15.7282C70.298 15.728 70.298 15.7278 70.298 15.7275C70.298 15.7273 70.298 15.7271 70.298 15.7269C70.298 15.7266 70.298 15.7264 70.298 15.7262C70.298 15.726 70.298 15.7258 70.298 15.7255C70.298 15.7253 70.298 15.7251 70.298 15.7249C70.298 15.7246 70.298 15.7244 70.298 15.7242C70.298 15.724 70.298 15.7238 70.298 15.7235C70.298 15.7233 70.298 15.7231 70.298 15.7229C70.298 15.7227 70.298 15.7224 70.298 15.7222C70.298 15.722 70.298 15.7218 70.298 15.7216C70.298 15.7213 70.298 15.7211 70.298 15.7209C70.298 15.7207 70.298 15.7205 70.298 15.7203C70.298 15.72 70.298 15.7198 70.298 15.7196C70.298 15.7194 70.298 15.7192 70.298 15.719C70.298 15.7187 70.298 15.7185 70.298 15.7183C70.298 15.7181 70.298 15.7179 70.298 15.7177C70.298 15.7175 70.298 15.7172 70.298 15.717C70.298 15.7168 70.298 15.7166 70.298 15.7164C70.298 15.7162 70.298 15.716 70.298 15.7158C70.298 15.7155 70.298 15.7153 70.298 15.7151C70.298 15.7149 70.298 15.7147 70.298 15.7145C70.298 15.7143 70.298 15.7141 70.298 15.7139C70.298 15.7137 70.298 15.7134 70.298 15.7132C70.298 15.713 70.298 15.7128 70.298 15.7126C70.298 15.7124 70.298 15.7122 70.298 15.712C70.298 15.7118 70.298 15.7116 70.298 15.7114C70.298 15.7112 70.298 15.711 70.298 15.7107C70.298 15.7105 70.298 15.7103 70.298 15.7101C70.298 15.7099 70.298 15.7097 70.298 15.7095C70.298 15.7093 70.298 15.7091 70.298 15.7089C70.298 15.7087 70.298 15.7085 70.298 15.7083C70.298 15.7081 70.298 15.7079 70.298 15.7077C70.298 15.7075 70.298 15.7073 70.298 15.7071C70.298 15.7069 70.298 15.7067 70.298 15.7065C70.298 15.7063 70.298 15.7061 70.298 15.7059C70.298 15.7057 70.298 15.7055 70.298 15.7053C70.298 15.7051 70.298 15.7049 70.298 15.7047C70.298 15.7045 70.298 15.7043 70.298 15.7041C70.298 15.7039 70.298 15.7037 70.298 15.7035C70.298 15.7033 70.298 15.7031 70.298 15.7029C70.298 15.7027 70.298 15.7025 70.298 15.7023C70.298 15.7021 70.298 15.7019 70.298 15.7017C70.298 15.7015 70.298 15.7013 70.298 15.7012C70.298 15.701 70.298 15.7008 70.298 15.7006C70.298 15.7004 70.298 15.7002 70.298 15.7C70.298 15.6998 70.298 15.6996 70.298 15.6994C70.298 15.6992 70.298 15.699 70.298 15.6988C70.298 15.6986 70.298 15.6985 70.298 15.6983C70.298 15.6981 70.298 15.6979 70.298 15.6977C70.298 15.6975 70.298 15.6973 70.298 15.6971C70.298 15.6969 70.298 15.6968 70.298 15.6966C70.298 15.6964 70.298 15.6962 70.298 15.696C70.298 15.6958 70.298 15.6956 70.298 15.6954C70.298 15.6953 70.298 15.6951 70.298 15.6949C70.298 15.6947 70.298 15.6945 70.298 15.6943C70.298 15.6941 70.298 15.694 70.298 15.6938C70.298 15.6936 70.298 15.6934 70.298 15.6932C70.298 15.693 70.298 15.6928 70.298 15.6927C70.298 15.6925 70.298 15.6923 70.298 15.6921C70.298 15.6919 70.298 15.6918 70.298 15.6916C70.298 15.6914 70.298 15.6912 70.298 15.691C70.298 15.6908 70.298 15.6907 70.298 15.6905C70.298 15.6903 70.298 15.6901 70.298 15.6899C70.298 15.6898 70.298 15.6896 70.298 15.6894C70.298 15.6892 70.298 15.6891 70.298 15.6889C70.298 15.6887 70.298 15.6885 70.298 15.6883C70.298 15.6882 70.298 15.688 70.298 15.6878C70.298 15.6876 70.298 15.6875 70.298 15.6873C70.298 15.6871 70.298 15.6869 70.298 15.6868C70.298 15.6866 70.298 15.6864 70.298 15.6862C70.298 15.6861 70.298 15.6859 70.298 15.6857C70.298 15.6855 70.298 15.6854 70.298 15.6852C70.298 15.685 70.298 15.6848 70.298 15.6847C70.298 15.6845 70.298 15.6843 70.298 15.6842C70.298 15.684 70.298 15.6838 70.298 15.6836C70.298 15.6835 70.298 15.6833 70.298 15.6831C70.298 15.683 70.298 15.6828 70.298 15.6826C70.298 15.6825 70.298 15.6823 70.298 15.6821C70.298 15.6819 70.298 15.6818 70.298 15.6816C70.298 15.6814 70.298 15.6813 70.298 15.6811C70.298 15.6809 70.298 15.6808 70.298 15.6806C70.298 15.6804 70.298 15.6803 70.298 15.6801C70.298 15.6799 70.298 15.6798 70.298 15.6796C70.298 15.6795 70.298 15.6793 70.298 15.6791C70.298 15.679 70.298 15.6788 70.298 15.6786C70.298 15.6785 70.298 15.6783 70.298 15.6781C70.298 15.678 70.298 15.6778 70.298 15.6777C70.298 15.6775 70.298 15.6773 70.298 15.6772C70.298 15.677 70.298 15.6769 70.298 15.6767C70.298 15.6765 70.298 15.6764 70.298 15.6762C70.298 15.6761 70.298 15.6759 70.298 15.6757C70.298 15.6756 70.298 15.6754 70.298 15.6753C70.298 15.6751 70.298 15.6749 70.298 15.6748C70.298 15.6746 70.298 15.6745 70.298 15.6743C70.298 15.6742 70.298 15.674 70.298 15.6738C70.298 15.6737 70.298 15.6735 70.298 15.6734C70.298 15.6732 70.298 15.6731 70.298 15.6729C70.298 15.6728 70.298 15.6726 70.298 15.6724C70.298 15.6723 70.298 15.6721 70.298 15.672C70.298 15.6718 70.298 15.6717 70.298 15.6715C70.298 15.6714 70.298 15.6712 70.298 15.6711C70.298 15.6709 70.298 15.6708 70.298 15.6706C70.298 15.6705 70.298 15.6703 70.298 15.6702C70.298 15.67 70.298 15.6699 70.298 15.6697C70.298 15.6696 70.298 15.6694 70.298 15.6693C70.298 15.6691 70.298 15.669 70.298 15.6688C70.298 15.6687 70.298 15.6685 70.298 15.6684C70.298 15.6682 70.298 15.6681 70.298 15.6679C70.298 15.6678 70.298 15.6677 70.298 15.6675C70.298 15.6674 70.298 15.6672 70.298 15.6671C70.298 15.6669 70.298 15.6668 70.298 15.6666C70.298 15.6665 70.298 15.6663 70.298 15.6662C70.298 15.6661 70.298 15.6659 70.298 15.6658C70.298 15.6656 70.298 15.6655 70.298 15.6653C70.298 15.6652 70.298 15.6651 70.298 15.6649C70.298 15.6648 70.298 15.6646 70.298 15.6645C70.298 15.6644 70.298 15.6642 70.298 15.6641C70.298 15.6639 70.298 15.6638 70.298 15.6637C70.298 15.6635 70.298 15.6634 70.298 15.6632C70.298 15.6631 70.298 15.663 70.298 15.6628C70.298 15.6627 70.298 15.6626 70.298 15.6624C70.298 15.6623 70.298 15.6621 70.298 15.662C70.298 15.6619 70.298 15.6617 70.298 15.6616C70.298 15.6615 70.298 15.6613 70.298 15.6612C70.298 15.6611 70.298 15.6609 70.298 15.6608C70.298 15.6607 70.298 15.6605 70.298 15.6604C70.298 15.6603 70.298 15.6601 70.298 15.66C70.298 15.6599 70.298 15.6597 70.298 15.6596C70.298 15.6595 70.298 15.6593 70.298 15.6592C70.298 15.6591 70.298 15.6589 70.298 15.6588C70.298 15.6587 70.298 15.6585 70.298 15.6584C70.298 15.6583 70.298 15.6582 70.298 15.658C70.298 15.6579 70.298 15.6578 70.298 15.6576C70.298 15.6575 70.298 15.6574 70.298 15.6573C70.298 15.6571 70.298 15.657 70.298 15.6569C70.298 15.6568 70.298 15.6566 70.298 15.6565C70.298 15.6564 70.298 15.6562 70.298 15.6561C70.298 15.656 70.298 15.6559 70.298 15.6557C70.298 15.6556 70.298 15.6555 70.298 15.6554C70.298 15.6553 70.298 15.6551 70.298 15.655C70.298 15.6549 70.298 15.6548 70.298 15.6546C70.298 15.6545 70.298 15.6544 70.298 15.6543C70.298 15.6542 70.298 15.654 70.298 15.6539C70.298 15.6538 70.298 15.6537 70.298 15.6535C70.298 15.6534 70.298 15.6533 70.298 15.6532C70.298 15.6531 70.298 15.653 70.298 15.6528C70.298 15.6527 70.298 15.6526 70.298 15.6525C70.298 15.6524 70.298 15.6522 70.298 15.6521C70.298 15.652 70.298 15.6519 70.298 15.6518C70.298 15.6517 70.298 15.6515 70.298 15.6514C70.298 15.6513 70.298 15.6512 70.298 15.6511C70.298 15.651 70.298 15.6509 70.298 15.6507C70.298 15.6506 70.298 15.6505 70.298 15.6504C70.298 15.6503 70.298 15.6502 70.298 15.6501C70.298 15.6499 70.298 15.6498 70.298 15.6497C70.298 15.6496 70.298 15.6495 70.298 15.6494C70.298 15.6493 70.298 15.6492 70.298 15.649C70.298 15.6489 70.298 15.6488 70.298 15.6487C70.298 15.6486 70.298 15.6485 70.298 15.6484C70.298 15.6483 70.298 15.6482 70.298 15.6481C70.298 15.648 70.298 15.6478 70.298 15.6477C70.298 15.6476 70.298 15.6475 70.298 15.6474C70.298 15.6473 70.298 15.6472 70.298 15.6471C70.298 15.647 70.298 15.6469 70.298 15.6468C70.298 15.6467 70.298 15.6466 70.298 15.6465C70.298 15.6464 70.298 15.6463 70.298 15.6462C70.298 15.646 70.298 15.6459 70.298 15.6458C70.298 15.6457 70.298 15.6456 70.298 15.6455C70.298 15.6454 70.298 15.6453 70.298 15.6452C70.298 15.6451 70.298 15.645 70.298 15.6449C70.298 15.6448 70.298 15.6447 70.298 15.6446C70.298 15.6445 70.298 15.6444 70.298 15.6443C70.298 15.6442 70.298 15.6441 70.298 15.644C70.298 15.6439 70.298 15.6438 70.298 15.6437C70.298 15.6436 70.298 15.6435 70.298 15.6434C70.298 15.6433 70.298 15.6432 70.298 15.6431C70.298 15.643 70.298 15.6429 70.298 15.6429C70.298 15.6428 70.298 15.6427 70.298 15.6426C70.298 15.6425 70.298 15.6424 70.298 15.6423C70.298 15.6422 70.298 15.6421 70.298 15.642C70.298 15.6419 70.298 15.6418 70.298 15.6417C70.298 15.6416 70.298 15.6415 70.298 15.6414C70.298 15.6413 70.298 15.6413 70.298 15.6412C70.298 15.6411 70.298 15.641 70.298 15.6409C70.298 15.6408 70.298 15.6407 70.298 15.6406C70.298 15.6405 70.298 15.6404 70.298 15.6404C70.298 15.6403 70.298 15.6402 70.298 15.6401C70.298 15.64 70.298 15.6399 70.298 15.6398C70.298 15.6397 70.298 15.6396 70.298 15.6396C70.298 15.6395 70.298 15.6394 70.298 15.6393C70.298 15.6392 70.298 15.6391 70.298 15.639C70.298 15.639 70.298 15.6389 70.298 15.6388C70.298 15.6387 70.298 15.6386 70.298 15.6385C70.298 15.6384 70.298 15.6384 70.298 15.6383C70.298 15.6382 70.298 15.6381 70.298 15.638C70.298 15.6379 70.298 15.6379 70.298 15.6378C70.298 15.6377 70.298 15.6376 70.298 15.6375C70.298 15.6375 70.298 15.6374 70.298 15.6373C70.298 15.6372 70.298 15.6371 70.298 15.6371C70.298 15.637 70.298 15.6369 70.298 15.6368C70.298 15.6367 70.298 15.6367 70.298 15.6366C70.298 15.6365 70.298 15.6364 70.298 15.6363C70.298 15.6363 70.298 15.6362 70.298 15.6361C70.298 15.636 70.298 15.636 70.298 15.6359C70.298 15.6358 70.298 15.6357 70.298 15.6357C70.298 15.6356 70.298 15.6355 70.298 15.6354C70.298 15.6354 70.298 15.6353 70.298 15.6352C70.298 15.6351 70.298 15.6351 70.298 15.635C70.298 15.6349 70.298 15.6348 70.298 15.6348C70.298 15.6347 70.298 15.6346 70.298 15.6346C70.298 15.6345 70.298 15.6344 70.298 15.6343C70.298 15.6343 70.298 15.6342 70.298 15.6341C70.298 15.6341 70.298 15.634 70.298 15.6339C70.298 15.6338 70.298 15.6338 70.298 15.6337C70.298 15.6336 70.298 15.6336 70.298 15.6335C70.298 15.6334 70.298 15.6334 70.298 15.6333C70.298 15.6332 70.298 15.6332 70.298 15.6331C70.298 15.633 70.298 15.633 70.298 15.6329C70.298 15.6328 70.298 15.6328 70.298 15.6327C70.298 15.6326 70.298 15.6326 70.298 15.6325C70.298 15.6324 70.298 15.6324 70.298 15.6323C70.298 15.6323 70.298 15.6322 70.298 15.6321C70.298 15.6321 70.298 15.632 70.298 15.6319C70.298 15.6319 70.298 15.6318 70.298 15.6318C70.298 15.6317 70.298 15.6316 70.298 15.6316C70.298 15.6315 70.298 15.6314 70.298 15.6314C70.298 15.6313 70.298 15.6313 70.298 15.6312C70.298 15.6311 70.298 15.6311 70.298 15.631C70.298 15.631 70.298 15.6309 70.298 15.6309C70.298 15.6308 70.298 15.6307 70.298 15.6307C70.298 15.6306 70.298 15.6306 70.298 15.6305C70.298 15.6305 70.298 15.6304 70.298 15.6303C70.298 15.6303 70.298 15.6302 70.298 15.6302C70.298 15.6301 70.298 15.6301 70.298 15.63C70.298 15.63 70.298 15.6299 70.298 15.6299C70.298 15.6298 70.298 15.6297 70.298 15.6297C70.298 15.6296 70.298 15.6296 70.298 15.6295C70.298 15.6295 70.298 15.6294 70.298 15.6294C70.298 15.6293 70.298 15.6293 70.298 15.6292C70.298 15.6292 70.298 15.6291 70.298 15.6291C70.298 15.629 70.298 15.629 70.298 15.6289C70.298 15.6289 70.298 15.6288 70.298 15.6288C70.298 15.6287 70.298 15.6287 70.298 15.6286C70.298 15.6286 70.298 15.6285 70.298 15.6285C70.298 15.6285 70.298 15.6284 70.298 15.6284C70.298 15.6283 70.298 15.6283 70.298 15.6282C70.298 15.6282 70.298 15.6281 70.298 15.6281C70.298 15.628 70.298 15.628 70.298 15.628C70.298 15.6279 70.298 15.6279 70.298 15.6278C70.298 15.6278 70.298 15.6277 70.298 15.6277C70.298 15.6277 70.298 15.6276 70.298 15.6276C70.298 15.6275 70.298 15.6275 70.298 15.6274C70.298 15.6274 70.298 15.6274 70.298 15.6273C70.298 15.6273 70.298 15.6272 70.298 15.6272C70.298 15.6272 70.298 15.6271 70.298 15.6271C70.298 15.627 70.298 15.627 70.298 15.627C70.298 15.6269 70.298 15.6269 70.298 15.6269C70.298 15.6268 70.298 15.6268 70.298 15.6267C70.298 15.6267 70.298 15.6267 70.298 15.6266C70.298 15.6266 70.298 15.6266 70.298 15.6265C70.298 15.6265 70.298 15.6265 70.298 15.6264C70.298 15.6264 70.298 15.6264 70.298 15.6263C70.298 15.6263 70.298 15.6263 70.298 15.6262C70.298 15.6262 70.298 15.6262 70.298 15.6261C70.298 15.6261 70.298 15.6261 70.298 15.626C70.298 15.626 70.298 15.626 70.298 15.6259C70.298 15.6259 70.298 15.6259 70.298 15.6258C70.298 15.6258 70.298 15.6258 70.298 15.6258C70.298 15.6257 70.298 15.6257 70.298 15.6257C70.298 15.6256 70.298 15.6256 70.298 15.6256C70.298 15.6256 70.298 15.6255 70.298 15.6255C70.298 15.6255 70.298 15.6254 70.298 15.6254C70.298 15.6254 70.298 15.6254 70.298 15.6253C70.298 15.6253 70.298 15.6253 70.298 15.6253C70.298 15.6252 70.298 15.6252 70.298 15.6252C70.298 15.6252 70.298 15.6251 70.298 15.6251C70.298 15.6251 70.298 15.6251 70.298 15.6251C70.298 15.625 70.298 15.625 70.298 15.625C70.298 15.625 70.298 15.6249 70.298 15.6249C70.298 15.6249 70.298 15.6249 70.298 15.6249C70.298 15.6248 70.298 15.6248 70.298 15.6248C70.298 15.6248 70.298 15.6248 70.298 15.6247C70.298 15.6247 70.298 15.6247 70.298 15.6247C70.298 15.6247 70.298 15.6246 70.298 15.6246C70.298 15.6246 70.298 15.6246 70.298 15.6246C70.298 15.6246 70.298 15.6245 70.298 15.6245C70.298 15.6245 70.298 15.6245 70.298 15.6245C70.298 15.6245 70.298 15.6245 70.298 15.6244C70.298 15.6244 70.298 15.6244 70.298 15.6244C70.298 15.6244 70.298 15.6244 70.298 15.6244C70.298 15.6243 70.298 15.6243 70.298 15.6243C70.298 15.6243 70.298 15.6243 70.298 15.6243C70.298 15.6243 70.298 15.6243 70.298 15.6242C70.298 15.6242 70.298 15.6242 70.298 15.6242C70.298 15.6242 70.298 15.6242 70.298 15.6242C70.298 15.6242 70.298 15.6242 70.298 15.6242C70.298 15.6241 70.298 15.6241 70.298 15.6241C70.298 15.6241 70.298 15.6241 70.298 15.6241C70.298 15.6241 70.298 15.6241 70.298 15.6241C70.298 15.6241 70.298 15.6241 70.298 15.6241C70.298 15.6241 70.298 15.6241 70.298 15.6241C70.298 15.624 70.298 15.624 70.298 15.624C70.298 15.624 70.298 15.624 70.298 15.624C70.298 15.624 70.298 15.624 70.298 15.624C70.298 15.624 70.298 15.624 70.298 15.624C70.298 15.624 70.298 15.624 70.298 15.624C70.298 15.624 70.298 15.624 70.298 15.624C70.298 15.624 70.298 15.624 69.298 15.624ZM68.298 15.912C68.298 16.4579 68.1859 16.7205 68.1004 16.8352C68.04 16.9161 67.9304 17.0122 67.6235 17.0401L67.8045 19.0319C68.5536 18.9638 69.236 18.6578 69.7036 18.0308C70.1461 17.4375 70.298 16.6861 70.298 15.912H68.298ZM67.6452 17.0384L66.6012 17.1104L66.7388 19.1056L67.7828 19.0336L67.6452 17.0384ZM66.67 17.108H66.454V19.108H66.67V17.108ZM65.454 18.108V23.688H67.454V18.108H65.454ZM65.5747 23.2117C65.0956 24.0962 64.1521 24.9075 62.5728 25.5749L63.3512 27.4171C65.1799 26.6445 66.5644 25.5838 67.3333 24.1643L65.5747 23.2117ZM62.5839 25.5702C61.0176 26.21 59.2289 26.54 57.202 26.54V28.54C59.4471 28.54 61.4984 28.174 63.3401 27.4218L62.5839 25.5702ZM57.202 26.54C53.9194 26.54 51.5682 25.5276 49.9775 23.623L48.4425 24.905C50.4998 27.3684 53.4766 28.54 57.202 28.54V26.54ZM49.9851 23.6321C48.379 21.662 47.51 18.8203 47.51 14.976H45.51C45.51 19.0997 46.441 22.45 48.4349 24.8959L49.9851 23.6321ZM47.51 14.976C47.51 11.1647 48.4828 8.22309 50.3319 6.04765L48.8081 4.75235C46.5772 7.37691 45.51 10.8193 45.51 14.976H47.51ZM50.3282 6.05204C52.1596 3.9225 54.8289 2.8 58.498 2.8V0.799998C54.3911 0.799998 51.1084 2.0775 48.8118 4.74796L50.3282 6.05204ZM58.498 2.8C61.147 2.8 63.0314 3.24568 64.2693 4.01678L65.3267 2.31922C63.6366 1.26632 61.321 0.799998 58.498 0.799998V2.8ZM64.2794 4.02301C65.5384 4.78667 65.994 5.61888 65.994 6.516H67.994C67.994 4.72512 66.9856 3.32533 65.3166 2.31299L64.2794 4.02301ZM65.994 6.516C65.994 7.22548 65.769 7.66422 65.3903 7.97276L66.6537 9.52323C67.571 8.77578 67.994 7.72652 67.994 6.516H65.994ZM65.3903 7.97276C64.9709 8.31451 64.3422 8.54 63.394 8.54V10.54C64.6538 10.54 65.7771 10.2375 66.6537 9.52323L65.3903 7.97276ZM64.394 9.54C64.394 7.62583 63.9777 6.00562 62.9236 4.91952L61.4884 6.31247C62.0183 6.85838 62.394 7.85417 62.394 9.54H64.394ZM62.9342 4.93063C61.8744 3.80454 60.135 3.392 58.066 3.392V5.392C59.981 5.392 61.0017 5.79545 61.4778 6.30136L62.9342 4.93063ZM58.066 3.392C55.4909 3.392 53.4396 4.36145 52.082 6.35885C50.7713 8.28716 50.19 11.054 50.19 14.508H52.19C52.19 11.218 52.7547 8.92684 53.736 7.48315C54.6704 6.10854 56.0571 5.392 58.066 5.392V3.392ZM50.19 14.508C50.19 17.9034 50.7746 20.6215 52.101 22.5007L53.735 21.3473C52.7574 19.9625 52.19 17.7366 52.19 14.508H50.19ZM52.1108 22.5143C53.5316 24.4569 55.7804 25.336 58.606 25.336V23.336C56.1996 23.336 54.6564 22.6071 53.7252 21.3337L52.1108 22.5143ZM58.606 25.336C60.7451 25.336 62.5271 24.8433 63.6875 23.6203L62.2365 22.2437C61.6209 22.8927 60.4989 23.336 58.606 23.336V25.336ZM63.962 22.932V18.18H61.962V22.932H63.962ZM63.0042 17.1809L57.8922 16.9649L57.8078 18.9631L62.9198 19.1791L63.0042 17.1809ZM58.8458 17.8721C58.7823 17.1849 58.896 16.884 58.9692 16.7782C58.9992 16.7348 59.0801 16.624 59.47 16.624V14.624C58.6359 14.624 57.8348 14.9032 57.3248 15.6398C56.858 16.314 56.7737 17.1831 56.8542 18.0559L58.8458 17.8721ZM77.3834 22.032L76.5301 22.5535L76.5354 22.562L77.3834 22.032ZM82.0994 24.66L82.0877 25.6599L82.0991 25.6601L82.1104 25.6599L82.0994 24.66ZM87.0314 22.14L86.2012 21.5826L86.1993 21.5853L87.0314 22.14ZM87.0674 7.272L86.2194 7.802L86.2237 7.8089L86.2281 7.81574L87.0674 7.272ZM74.2154 5.292L74.9602 5.95926L74.9636 5.9554L74.2154 5.292ZM90.5954 5.148L89.8251 5.78578L89.8326 5.79468L90.5954 5.148ZM90.2714 24.084L89.5269 23.4163L89.5265 23.4168L90.2714 24.084ZM73.8914 24.228L73.1211 24.8657L73.1245 24.8698L73.8914 24.228ZM82.2434 3.68C79.7969 3.68 77.8531 4.63799 76.5741 6.58868C75.3433 8.46584 74.7994 11.1545 74.7994 14.508H76.7994C76.7994 11.3095 77.3295 9.08416 78.2466 7.68532C79.1156 6.36001 80.3939 5.68 82.2434 5.68V3.68ZM74.7994 14.508C74.7994 17.8766 75.3357 20.5989 76.5301 22.5534L78.2367 21.5105C77.3191 20.0091 76.7994 17.7154 76.7994 14.508H74.7994ZM76.5354 22.562C77.7987 24.5834 79.6885 25.632 82.0877 25.6599L82.111 23.6601C80.3823 23.64 79.128 22.9366 78.2314 21.502L76.5354 22.562ZM82.1104 25.6599C84.587 25.6327 86.5561 24.6557 87.8634 22.6947L86.1993 21.5853C85.2987 22.9363 83.9798 23.6393 82.0884 23.6601L82.1104 25.6599ZM87.8616 22.6974C89.1492 20.7798 89.7234 18.0756 89.7234 14.724H87.7234C87.7234 17.9004 87.1696 20.1402 86.2012 21.5826L87.8616 22.6974ZM89.7234 14.724C89.7234 11.3737 89.1615 8.66506 87.9066 6.72826L86.2281 7.81574C87.1813 9.28694 87.7234 11.5463 87.7234 14.724H89.7234ZM87.9154 6.742C86.6422 4.70495 84.704 3.68 82.2434 3.68V5.68C84.0547 5.68 85.3325 6.38305 86.2194 7.802L87.9154 6.742ZM72.1194 14.832C72.1194 10.9439 73.1062 8.02883 74.9602 5.95925L73.4705 4.62475C71.1965 7.16316 70.1194 10.6081 70.1194 14.832H72.1194ZM74.9636 5.9554C76.8127 3.86981 79.3093 2.8 82.5674 2.8V0.799998C78.8175 0.799998 75.746 2.05819 73.4671 4.62859L74.9636 5.9554ZM82.5674 2.8C85.8421 2.8 88.2069 3.8313 89.8251 5.78574L91.3656 4.51026C89.2878 2.0007 86.3006 0.799998 82.5674 0.799998V2.8ZM89.8326 5.79468C91.5 7.76128 92.4034 10.6307 92.4034 14.544H94.4034C94.4034 10.3453 93.4348 6.95072 91.3581 4.50131L89.8326 5.79468ZM92.4034 14.544C92.4034 18.4029 91.4072 21.3199 89.5269 23.4163L91.0158 24.7517C93.3115 22.1921 94.4034 18.7491 94.4034 14.544H92.4034ZM89.5265 23.4168C87.6785 25.4797 85.1809 26.54 81.9194 26.54V28.54C85.6658 28.54 88.7363 27.2963 91.0162 24.7512L89.5265 23.4168ZM81.9194 26.54C78.6409 26.54 76.2752 25.5182 74.6582 23.5862L73.1245 24.8698C75.2035 27.3538 78.1898 28.54 81.9194 28.54V26.54ZM74.6616 23.5903C73.011 21.5966 72.1194 18.7214 72.1194 14.832H70.1194C70.1194 19.0066 71.0758 22.3954 73.1211 24.8657L74.6616 23.5903Z" fill="white"/>
</g>
<defs>
<filter id="filter0_d_1_2" x="0.760315" y="0.799988" width="93.6431" height="27.74" filterUnits="userSpaceOnUse" color-interpolation-filters="sRGB">
<feFlood flood-opacity="0" result="BackgroundImageFix"/>
<feColorMatrix in="SourceAlpha" type="matrix" values="0 0 0 0 0 0 0 0 0 0 0 0 0 0 0 0 0 0 127 0" result="hardAlpha"/>
<feOffset/>
<feGaussianBlur stdDeviation="0.5"/>
<feComposite in2="hardAlpha" operator="out"/>
<feColorMatrix type="matrix" values="0 0 0 0 0 0 0 0 0 0 0 0 0 0 0 0 0 0 1 0"/>
<feBlend mode="normal" in2="BackgroundImageFix" result="effect1_dropShadow_1_2"/>
<feBlend mode="normal" in="SourceGraphic" in2="effect1_dropShadow_1_2" result="shape"/>
</filter>
</defs>
</svg>
